{"title":"SYRUP.flv","uid":8477275,"size":251229314,"categoryP":"video","categoryS":"movies","magnet":"?xt=urn:btih:4a23a6e4915ce4c1eaeb5ae2cf239de1ead89f53&amp;dn=SYRUP.flv&amp;tr=udp%3A%2F%2Ftracker.openbittorrent.com%3A80&amp;tr=udp%3A%2F%2Fopen.demonii.com%3A1337&amp;tr=udp%3A%2F%2Ftracker.coppersurfer.tk%3A6969&amp;tr=udp%3A%2F%2Fexodus.desync.com%3A6969","seeders":0,"leechers":0,"uploader":"globeplus","files":-1,"time":1368645992,"description":"SYRUP.flv\n\nGeneral\n\nFormat                                   : Flash Video\nFile size                                : 240 MiB\nDuration                                 : 1h 29mn\nOverall bit rate                         : 372 Kbps\nTagged date                              : UTC 2013-05-06 09:46:34\nTagging application                      : inlet media FLVTool2 v1.0.6 - http://www.inlet-media.de/flvtool2\n\nVideo\nFormat                                   : AVC\nFormat/Info                              : Advanced Video Codec\nFormat profile                           : &lt;a class=&quot;__cf_email__&quot; href=&quot;/cdn-cgi/l/email-protection&quot; data-cfemail=&quot;a5edccc2cde5e9918b94&quot;&gt;[email&amp;#160;protected]&lt;/a&gt;&lt;script data-cfhash='f9e31' type=&quot;text/javascript&quot;&gt;\n/* &lt;![CDATA[ */!function(){try{var t=&quot;currentScript&quot;in document?document.currentScript:function(){for(var t=document.getElementsByTagName(&quot;script&quot;),e=t.length;e--;)if(t[e].getAttribute(&quot;data-cfhash&quot;))return t[e]}();if(t&amp;&amp;t.previousSibling){var e,r,n,i,c=t.previousSibling,a=c.getAttribute(&quot;data-cfemail&quot;);if(a){for(e=&quot;&quot;,r=parseInt(a.substr(0,2),16),n=2;a.length-n;n+=2)i=parseInt(a.substr(n,2),16)^r,e+=String.fromCharCode(i);e=document.createTextNode(e),c.parentNode.replaceChild(e,c)}t.parentNode.removeChild(t);}}catch(u){}}()/* ]]&gt; */&lt;/script&gt;\nFormat settings, CABAC                   : Yes\nFormat settings, ReFrames                : 4 frames\nCodec ID                                 : 7\nDuration                                 : 1h 29mn\nBit rate                                 : 284 Kbps\nWidth                                    : 720 pixels\nHeight                                   : 304 pixels\nDisplay aspect ratio                     : 2.35:1\nFrame rate mode                          : Constant\nFrame rate                               : 23.000 fps\nColor space                              : YUV\nChroma subsampling                       : 4:2:0\nBit depth                                : 8 bits\nScan type                                : Progressive\nBits/(Pixel*Frame)                       : 0.056\nStream size                              : 184 MiB (77%)\nWriting library                          : x264 core 115\nEncoding settings                        : cabac=1 / ref=3 / \n\nAudio\nFormat                                   : AAC\nFormat/Info                              : Advanced Audio Codec\nFormat profile                           : LC\nCodec ID                                 : 10\nDuration                                 : 1h 29mn\nBit rate                                 : 80.6 Kbps\nChannel(s)                               : 2 channels\nChannel positions                        : Front: L R\nSampling rate                            : 44.1 KHz\nCompression mode                         : Lossy\nDelay relative to video                  : 42ms\nStream size                              : 54.3 MiB (23%)\n\n\nPlot\n\nA slacker hatches a million-dollar idea. But, in order to see it through, he has to learn to trust his attractive corporate counterpart .\n\n\n\n* enjoy ...","torrent":{"xt":"urn:btih:4a23a6e4915ce4c1eaeb5ae2cf239de1ead89f53","amp;dn":"SYRUP.flv","amp;tr":["udp%3A%2F%2Ftracker.openbittorrent.com%3A80","udp%3A%2F%2Fopen.demonii.com%3A1337","udp%3A%2F%2Ftracker.coppersurfer.tk%3A6969","udp%3A%2F%2Fexodus.desync.com%3A6969"],"infoHash":"4a23a6e4915ce4c1eaeb5ae2cf239de1ead89f53","infoHashBuffer":{"type":"Buffer","data":[74,35,166,228,145,92,228,193,234,235,90,226,207,35,157,225,234,216,159,83]},"announce":[],"urlList":[]}}